<svg width="26" height="26" viewBox="0 0 26 26" fill="none" xmlns="http://www.w3.org/2000/svg">
<path d="M6.02832 0.774536C6.52192 0.700626 6.98037 0.801473 7.38672 1.00598C8.05883 1.34431 8.61943 1.98132 9.09375 2.64856L9.29199 2.93567L9.29395 2.9386L9.9043 3.85754L10.0967 4.15442C10.5367 4.85613 10.9079 5.62084 11 6.39856C11.1069 7.30105 10.8299 8.15691 10.0596 8.87415L9.89941 9.01575L9.05176 9.72375L9.04785 9.72668C8.92706 9.82616 8.76536 9.92626 8.66895 9.9884C8.5506 10.0647 8.44583 10.1354 8.34961 10.215C8.16343 10.3689 8.04445 10.5281 8 10.7384C7.95386 10.9573 7.96288 11.353 8.28418 12.0245C8.60707 12.6993 9.22177 13.6006 10.3037 14.7921V14.7931C12.5082 17.2233 13.691 17.5918 14.2344 17.5607C14.4838 17.5463 14.6749 17.4458 14.8574 17.2931C14.9532 17.2129 15.0409 17.1233 15.1367 17.0216C15.2148 16.9387 15.3419 16.7979 15.4639 16.6964L16.3047 15.9913L16.3076 15.9884C17.2009 15.2483 18.1624 15.0822 19.1055 15.3156C19.88 15.5072 20.6093 15.9597 21.2725 16.4738L21.5527 16.6974L21.5537 16.6984L22.4121 17.4064L22.6807 17.6329C23.3043 18.1731 23.8897 18.7958 24.1504 19.4913C24.3098 19.9168 24.3543 20.3863 24.2021 20.8663C24.0534 21.3353 23.7395 21.7406 23.3145 22.0948L22.5586 22.7267C21.9133 23.3538 20.047 24.8858 17.0146 24.9171C13.3012 24.9556 9.52337 22.7395 5.7998 18.629C2.07879 14.5282 0.290408 10.6188 0.851562 7.06165C1.31112 4.14063 3.18298 2.57732 3.91016 2.06165L4.65527 1.4386L4.65723 1.43665C5.08527 1.08081 5.54192 0.847418 6.02832 0.774536Z" stroke="white" stroke-width="1.5"/>
</svg>
